<svg xmlns="http://www.w3.org/2000/svg" xmlns:xlink="http://www.w3.org/1999/xlink" width="500" zoomAndPan="magnify" viewBox="0 0 375 374.999991" height="500" preserveAspectRatio="xMidYMid meet" version="1.0"><defs><g/><clipPath id="1136a9a7f3"><path d="M 148 99.636719 L 163 99.636719 L 163 116 L 148 116 Z M 148 99.636719 " clip-rule="nonzero"/></clipPath></defs><path fill="#56b6c2" d="M 220.75 161.566406 C 213.554688 164.699219 207.25 169.550781 200.4375 173.449219 C 196.929688 175.453125 193.195312 177.183594 189.257812 178.082031 C 179.75 180.25 169.40625 176.867188 171.449219 165.257812 C 172.738281 157.925781 179.378906 153.386719 185.613281 149.949219 C 196.128906 144.144531 211.300781 144.808594 209.941406 133.539062 C 202.152344 136.769531 188.03125 133.566406 182.425781 130.65625 C 183.316406 130 185.308594 129.09375 185.308594 129.09375 C 180.796875 120.773438 166.371094 114.808594 151.023438 116.160156 C 148.097656 109.234375 142.371094 104.675781 135.265625 102.21875 C 137.117188 108.285156 134.457031 116.503906 135.550781 120.082031 C 126.320312 124.882812 119.722656 133.613281 118.273438 142.574219 C 118.273438 142.574219 121.710938 137.742188 127.042969 133.507812 C 112.566406 152.382812 116.488281 185.164062 128.617188 198.785156 C 126.921875 185.851562 134.902344 154.664062 162.101562 146.484375 C 162.101562 146.484375 152.753906 147.046875 147.714844 149.734375 C 153.1875 143.511719 160.167969 141.566406 170.917969 140.996094 C 177.738281 140.632812 190.277344 143.382812 199.449219 142.644531 C 187.617188 145.371094 165.457031 151.457031 157.828125 170.042969 C 155.355469 176.058594 155.246094 183.140625 158.582031 188.722656 C 173.707031 214.015625 220.296875 184.195312 244.085938 181.1875 C 252.117188 180.167969 256.484375 183.210938 258.378906 187.71875 C 262.433594 170.257812 247.605469 149.867188 220.75 161.566406 Z M 220.75 161.566406 " fill-opacity="1" fill-rule="nonzero"/><g clip-path="url(#1136a9a7f3)"><path fill="#56b6c2" d="M 148.324219 109.425781 C 149.761719 111.121094 150.976562 112.980469 151.960938 114.996094 C 153.085938 114.925781 154.222656 114.890625 155.347656 114.890625 C 157.910156 114.890625 160.4375 115.070312 162.894531 115.414062 C 160.820312 108.5625 156.03125 103.304688 149.6875 99.636719 C 150.019531 102.792969 149.226562 106.238281 148.324219 109.425781 Z M 148.324219 109.425781 " fill-opacity="1" fill-rule="nonzero"/></g><g fill="#56b6c2" fill-opacity="1"><g transform="translate(58.799937, 266.184299)"><g><path d="M 6.203125 0 L 6.203125 -51.265625 L 12.421875 -51.265625 L 12.421875 -5.5 L 36.25 -5.5 L 36.25 0 Z M 6.203125 0 "/></g></g></g><g fill="#56b6c2" fill-opacity="1"><g transform="translate(98.442955, 266.184299)"><g><path d="M 5.40625 0 L 5.40625 -38.453125 L 11.3125 -38.453125 L 11.3125 0 Z M 8.40625 -44.859375 C 7.257812 -44.859375 6.269531 -45.25 5.4375 -46.03125 C 4.613281 -46.8125 4.203125 -47.753906 4.203125 -48.859375 C 4.203125 -49.960938 4.613281 -50.90625 5.4375 -51.6875 C 6.269531 -52.46875 7.257812 -52.859375 8.40625 -52.859375 C 9.5625 -52.859375 10.550781 -52.46875 11.375 -51.6875 C 12.195312 -50.90625 12.609375 -49.960938 12.609375 -48.859375 C 12.609375 -47.753906 12.195312 -46.8125 11.375 -46.03125 C 10.550781 -45.25 9.5625 -44.859375 8.40625 -44.859375 Z M 8.40625 -44.859375 "/></g></g></g><g fill="#56b6c2" fill-opacity="1"><g transform="translate(115.16109, 266.184299)"><g><path d="M 11.3125 -23.125 L 11.3125 0 L 5.40625 0 L 5.40625 -38.453125 L 11.109375 -38.453125 L 11.109375 -32.4375 L 11.609375 -32.4375 C 12.515625 -34.394531 13.882812 -35.96875 15.71875 -37.15625 C 17.550781 -38.351562 19.921875 -38.953125 22.828125 -38.953125 C 26.710938 -38.953125 29.851562 -37.753906 32.25 -35.359375 C 34.644531 -32.972656 35.84375 -29.328125 35.84375 -24.421875 L 35.84375 0 L 29.9375 0 L 29.9375 -24.03125 C 29.9375 -27.050781 29.148438 -29.40625 27.578125 -31.09375 C 26.015625 -32.789062 23.863281 -33.640625 21.125 -33.640625 C 18.300781 -33.640625 15.957031 -32.722656 14.09375 -30.890625 C 12.238281 -29.066406 11.3125 -26.476562 11.3125 -23.125 Z M 11.3125 -23.125 "/></g></g></g><g fill="#56b6c2" fill-opacity="1"><g transform="translate(156.405846, 266.184299)"><g><path d="M 5.40625 0 L 5.40625 -51.265625 L 11.3125 -51.265625 L 11.3125 -21.328125 L 12.015625 -21.328125 L 28.828125 -38.453125 L 36.140625 -38.453125 L 19.90625 -22.03125 L 37.34375 0 L 29.828125 0 L 15.4375 -18.21875 L 11.3125 -14.390625 L 11.3125 0 Z M 5.40625 0 "/></g></g></g><g fill="#56b6c2" fill-opacity="1"><g transform="translate(194.747442, 266.184299)"><g><path d="M 6.203125 0 L 6.203125 -51.265625 L 36.9375 -51.265625 L 36.9375 -45.75 L 12.421875 -45.75 L 12.421875 -28.4375 L 34.640625 -28.4375 L 34.640625 -22.921875 L 12.421875 -22.921875 L 12.421875 0 Z M 6.203125 0 "/></g></g></g><g fill="#56b6c2" fill-opacity="1"><g transform="translate(236.092299, 266.184299)"><g><path d="M 21.03125 0.796875 C 17.550781 0.796875 14.503906 -0.0234375 11.890625 -1.671875 C 9.285156 -3.328125 7.253906 -5.640625 5.796875 -8.609375 C 4.335938 -11.578125 3.609375 -15.046875 3.609375 -19.015625 C 3.609375 -23.023438 4.335938 -26.519531 5.796875 -29.5 C 7.253906 -32.488281 9.285156 -34.8125 11.890625 -36.46875 C 14.503906 -38.125 17.550781 -38.953125 21.03125 -38.953125 C 24.5 -38.953125 27.535156 -38.125 30.140625 -36.46875 C 32.753906 -34.8125 34.789062 -32.488281 36.25 -29.5 C 37.71875 -26.519531 38.453125 -23.023438 38.453125 -19.015625 C 38.453125 -15.046875 37.71875 -11.578125 36.25 -8.609375 C 34.789062 -5.640625 32.753906 -3.328125 30.140625 -1.671875 C 27.535156 -0.0234375 24.5 0.796875 21.03125 0.796875 Z M 21.03125 -4.5 C 23.664062 -4.5 25.832031 -5.175781 27.53125 -6.53125 C 29.226562 -7.882812 30.484375 -9.660156 31.296875 -11.859375 C 32.117188 -14.066406 32.53125 -16.453125 32.53125 -19.015625 C 32.53125 -21.585938 32.117188 -23.984375 31.296875 -26.203125 C 30.484375 -28.421875 29.226562 -30.210938 27.53125 -31.578125 C 25.832031 -32.953125 23.664062 -33.640625 21.03125 -33.640625 C 18.394531 -33.640625 16.222656 -32.953125 14.515625 -31.578125 C 12.816406 -30.210938 11.554688 -28.421875 10.734375 -26.203125 C 9.921875 -23.984375 9.515625 -21.585938 9.515625 -19.015625 C 9.515625 -16.453125 9.921875 -14.066406 10.734375 -11.859375 C 11.554688 -9.660156 12.816406 -7.882812 14.515625 -6.53125 C 16.222656 -5.175781 18.394531 -4.5 21.03125 -4.5 Z M 21.03125 -4.5 "/></g></g></g><g fill="#56b6c2" fill-opacity="1"><g transform="translate(278.137935, 266.184299)"><g><path d="M 9.8125 -38.453125 L 19.015625 -22.734375 L 28.234375 -38.453125 L 35.046875 -38.453125 L 22.625 -19.21875 L 35.046875 0 L 28.234375 0 L 19.015625 -14.921875 L 9.8125 0 L 3 0 L 15.21875 -19.21875 L 3 -38.453125 Z M 9.8125 -38.453125 "/></g></g></g><g fill="#56b6c2" fill-opacity="1"><g transform="translate(94.577003, 282.001545)"><g><path d="M 3.703125 -4.1875 C 3.671875 -4.414062 3.566406 -4.59375 3.390625 -4.71875 C 3.222656 -4.851562 2.988281 -4.921875 2.6875 -4.921875 C 2.382812 -4.921875 2.148438 -4.859375 1.984375 -4.734375 C 1.828125 -4.609375 1.75 -4.453125 1.75 -4.265625 C 1.75 -4.046875 1.835938 -3.882812 2.015625 -3.78125 C 2.203125 -3.675781 2.421875 -3.59375 2.671875 -3.53125 L 3.203125 -3.40625 C 3.546875 -3.332031 3.847656 -3.222656 4.109375 -3.078125 C 4.378906 -2.929688 4.585938 -2.742188 4.734375 -2.515625 C 4.890625 -2.285156 4.96875 -2.003906 4.96875 -1.671875 C 4.96875 -1.140625 4.765625 -0.710938 4.359375 -0.390625 C 3.960938 -0.078125 3.40625 0.078125 2.6875 0.078125 C 1.976562 0.078125 1.410156 -0.0820312 0.984375 -0.40625 C 0.554688 -0.726562 0.335938 -1.207031 0.328125 -1.84375 L 1.515625 -1.84375 C 1.546875 -1.550781 1.664062 -1.328125 1.875 -1.171875 C 2.082031 -1.023438 2.347656 -0.953125 2.671875 -0.953125 C 2.984375 -0.953125 3.234375 -1.019531 3.421875 -1.15625 C 3.617188 -1.289062 3.71875 -1.46875 3.71875 -1.6875 C 3.71875 -1.882812 3.628906 -2.035156 3.453125 -2.140625 C 3.285156 -2.242188 3.039062 -2.335938 2.71875 -2.421875 L 2.078125 -2.578125 C 1.578125 -2.691406 1.179688 -2.878906 0.890625 -3.140625 C 0.609375 -3.398438 0.46875 -3.742188 0.46875 -4.171875 C 0.46875 -4.523438 0.5625 -4.835938 0.75 -5.109375 C 0.945312 -5.378906 1.210938 -5.585938 1.546875 -5.734375 C 1.890625 -5.878906 2.273438 -5.953125 2.703125 -5.953125 C 3.140625 -5.953125 3.519531 -5.878906 3.84375 -5.734375 C 4.164062 -5.585938 4.414062 -5.378906 4.59375 -5.109375 C 4.78125 -4.835938 4.878906 -4.53125 4.890625 -4.1875 Z M 3.703125 -4.1875 "/></g></g></g><g fill="#56b6c2" fill-opacity="1"><g transform="translate(101.75351, 282.001545)"><g><path d="M 0.515625 -5.875 L 2.046875 -5.875 L 3.65625 -1.921875 L 3.734375 -1.921875 L 5.34375 -5.875 L 6.875 -5.875 L 6.875 0 L 5.671875 0 L 5.671875 -3.828125 L 5.625 -3.828125 L 4.109375 -0.03125 L 3.28125 -0.03125 L 1.765625 -3.84375 L 1.71875 -3.84375 L 1.71875 0 L 0.515625 0 Z M 0.515625 -5.875 "/></g></g></g><g fill="#56b6c2" fill-opacity="1"><g transform="translate(111.103355, 282.001545)"><g><path d="M 1.515625 0 L 0.1875 0 L 2.21875 -5.875 L 3.828125 -5.875 L 5.84375 0 L 4.515625 0 L 4.078125 -1.34375 L 1.953125 -1.34375 Z M 2.28125 -2.3125 L 3.765625 -2.3125 L 3.046875 -4.53125 L 3 -4.53125 Z M 2.28125 -2.3125 "/></g></g></g><g fill="#56b6c2" fill-opacity="1"><g transform="translate(119.031065, 282.001545)"><g><path d="M 0.515625 0 L 0.515625 -5.875 L 2.828125 -5.875 C 3.492188 -5.875 4.007812 -5.695312 4.375 -5.34375 C 4.75 -5 4.9375 -4.535156 4.9375 -3.953125 C 4.9375 -3.554688 4.84375 -3.210938 4.65625 -2.921875 C 4.476562 -2.640625 4.222656 -2.425781 3.890625 -2.28125 L 5.140625 0 L 3.765625 0 L 2.65625 -2.078125 L 1.75 -2.078125 L 1.75 0 Z M 1.75 -3.078125 L 2.59375 -3.078125 C 3.300781 -3.078125 3.65625 -3.367188 3.65625 -3.953125 C 3.65625 -4.554688 3.300781 -4.859375 2.59375 -4.859375 L 1.75 -4.859375 Z M 1.75 -3.078125 "/></g></g></g><g fill="#56b6c2" fill-opacity="1"><g transform="translate(126.219039, 282.001545)"><g><path d="M 0.28125 -4.84375 L 0.28125 -5.875 L 5.109375 -5.875 L 5.109375 -4.84375 L 3.3125 -4.84375 L 3.3125 0 L 2.078125 0 L 2.078125 -4.84375 Z M 0.28125 -4.84375 "/></g></g></g><g fill="#56b6c2" fill-opacity="1"><g transform="translate(133.504497, 282.001545)"><g><path d="M 0.515625 0 L 0.515625 -5.875 L 4.46875 -5.875 L 4.46875 -4.84375 L 1.75 -4.84375 L 1.75 -3.453125 L 4.265625 -3.453125 L 4.265625 -2.421875 L 1.75 -2.421875 L 1.75 -1.03125 L 4.484375 -1.03125 L 4.484375 0 Z M 0.515625 0 "/></g></g></g><g fill="#56b6c2" fill-opacity="1"><g transform="translate(140.339801, 282.001545)"><g><path d="M 0.515625 0 L 0.515625 -5.875 L 2.828125 -5.875 C 3.492188 -5.875 4.007812 -5.695312 4.375 -5.34375 C 4.75 -5 4.9375 -4.535156 4.9375 -3.953125 C 4.9375 -3.554688 4.84375 -3.210938 4.65625 -2.921875 C 4.476562 -2.640625 4.222656 -2.425781 3.890625 -2.28125 L 5.140625 0 L 3.765625 0 L 2.65625 -2.078125 L 1.75 -2.078125 L 1.75 0 Z M 1.75 -3.078125 L 2.59375 -3.078125 C 3.300781 -3.078125 3.65625 -3.367188 3.65625 -3.953125 C 3.65625 -4.554688 3.300781 -4.859375 2.59375 -4.859375 L 1.75 -4.859375 Z M 1.75 -3.078125 "/></g></g></g><g fill="#56b6c2" fill-opacity="1"><g transform="translate(151.289431, 282.001545)"><g><path d="M 0.515625 0 L 0.515625 -5.875 L 4.40625 -5.875 L 4.40625 -4.84375 L 1.75 -4.84375 L 1.75 -3.453125 L 4.140625 -3.453125 L 4.140625 -2.421875 L 1.75 -2.421875 L 1.75 0 Z M 0.515625 0 "/></g></g></g><g fill="#56b6c2" fill-opacity="1"><g transform="translate(157.90109, 282.001545)"><g><path d="M 0.515625 0 L 0.515625 -5.875 L 1.75 -5.875 L 1.75 -1.03125 L 4.265625 -1.03125 L 4.265625 0 Z M 0.515625 0 "/></g></g></g><g fill="#56b6c2" fill-opacity="1"><g transform="translate(164.372256, 282.001545)"><g><path d="M 5.90625 -2.9375 C 5.90625 -2.289062 5.785156 -1.742188 5.546875 -1.296875 C 5.304688 -0.847656 4.976562 -0.503906 4.5625 -0.265625 C 4.144531 -0.0351562 3.675781 0.078125 3.15625 0.078125 C 2.632812 0.078125 2.164062 -0.0351562 1.75 -0.265625 C 1.332031 -0.503906 1.003906 -0.847656 0.765625 -1.296875 C 0.523438 -1.753906 0.40625 -2.300781 0.40625 -2.9375 C 0.40625 -3.582031 0.523438 -4.128906 0.765625 -4.578125 C 1.003906 -5.023438 1.332031 -5.363281 1.75 -5.59375 C 2.164062 -5.832031 2.632812 -5.953125 3.15625 -5.953125 C 3.675781 -5.953125 4.144531 -5.832031 4.5625 -5.59375 C 4.976562 -5.363281 5.304688 -5.023438 5.546875 -4.578125 C 5.785156 -4.128906 5.90625 -3.582031 5.90625 -2.9375 Z M 4.65625 -2.9375 C 4.65625 -3.5625 4.515625 -4.035156 4.234375 -4.359375 C 3.960938 -4.691406 3.601562 -4.859375 3.15625 -4.859375 C 2.707031 -4.859375 2.347656 -4.691406 2.078125 -4.359375 C 1.804688 -4.035156 1.671875 -3.5625 1.671875 -2.9375 C 1.671875 -2.3125 1.804688 -1.832031 2.078125 -1.5 C 2.347656 -1.175781 2.707031 -1.015625 3.15625 -1.015625 C 3.601562 -1.015625 3.960938 -1.175781 4.234375 -1.5 C 4.515625 -1.832031 4.65625 -2.3125 4.65625 -2.9375 Z M 4.65625 -2.9375 "/></g></g></g><g fill="#56b6c2" fill-opacity="1"><g transform="translate(172.57522, 282.001545)"><g><path d="M 1.828125 0 L 0.15625 -5.875 L 1.515625 -5.875 L 2.484375 -1.796875 L 2.53125 -1.796875 L 3.609375 -5.875 L 4.765625 -5.875 L 5.828125 -1.78125 L 5.890625 -1.78125 L 6.859375 -5.875 L 8.21875 -5.875 L 6.53125 0 L 5.328125 0 L 4.203125 -3.84375 L 4.15625 -3.84375 L 3.046875 0 Z M 1.828125 0 "/></g></g></g><g fill="#56b6c2" fill-opacity="1"><g transform="translate(182.828243, 282.001545)"><g><path d="M 1.8125 -0.796875 L 1.78125 -0.484375 C 1.757812 -0.234375 1.710938 0.015625 1.640625 0.265625 C 1.566406 0.515625 1.492188 0.742188 1.421875 0.953125 C 1.347656 1.160156 1.285156 1.320312 1.234375 1.4375 L 0.453125 1.4375 C 0.484375 1.320312 0.519531 1.160156 0.5625 0.953125 C 0.613281 0.753906 0.660156 0.53125 0.703125 0.28125 C 0.753906 0.03125 0.785156 -0.222656 0.796875 -0.484375 L 0.8125 -0.796875 Z M 1.8125 -0.796875 "/></g></g></g><g fill="#56b6c2" fill-opacity="1"><g transform="translate(190.925005, 282.001545)"><g><path d="M 3.703125 -4.1875 C 3.671875 -4.414062 3.566406 -4.59375 3.390625 -4.71875 C 3.222656 -4.851562 2.988281 -4.921875 2.6875 -4.921875 C 2.382812 -4.921875 2.148438 -4.859375 1.984375 -4.734375 C 1.828125 -4.609375 1.75 -4.453125 1.75 -4.265625 C 1.75 -4.046875 1.835938 -3.882812 2.015625 -3.78125 C 2.203125 -3.675781 2.421875 -3.59375 2.671875 -3.53125 L 3.203125 -3.40625 C 3.546875 -3.332031 3.847656 -3.222656 4.109375 -3.078125 C 4.378906 -2.929688 4.585938 -2.742188 4.734375 -2.515625 C 4.890625 -2.285156 4.96875 -2.003906 4.96875 -1.671875 C 4.96875 -1.140625 4.765625 -0.710938 4.359375 -0.390625 C 3.960938 -0.078125 3.40625 0.078125 2.6875 0.078125 C 1.976562 0.078125 1.410156 -0.0820312 0.984375 -0.40625 C 0.554688 -0.726562 0.335938 -1.207031 0.328125 -1.84375 L 1.515625 -1.84375 C 1.546875 -1.550781 1.664062 -1.328125 1.875 -1.171875 C 2.082031 -1.023438 2.347656 -0.953125 2.671875 -0.953125 C 2.984375 -0.953125 3.234375 -1.019531 3.421875 -1.15625 C 3.617188 -1.289062 3.71875 -1.46875 3.71875 -1.6875 C 3.71875 -1.882812 3.628906 -2.035156 3.453125 -2.140625 C 3.285156 -2.242188 3.039062 -2.335938 2.71875 -2.421875 L 2.078125 -2.578125 C 1.578125 -2.691406 1.179688 -2.878906 0.890625 -3.140625 C 0.609375 -3.398438 0.46875 -3.742188 0.46875 -4.171875 C 0.46875 -4.523438 0.5625 -4.835938 0.75 -5.109375 C 0.945312 -5.378906 1.210938 -5.585938 1.546875 -5.734375 C 1.890625 -5.878906 2.273438 -5.953125 2.703125 -5.953125 C 3.140625 -5.953125 3.519531 -5.878906 3.84375 -5.734375 C 4.164062 -5.585938 4.414062 -5.378906 4.59375 -5.109375 C 4.78125 -4.835938 4.878906 -4.53125 4.890625 -4.1875 Z M 3.703125 -4.1875 "/></g></g></g><g fill="#56b6c2" fill-opacity="1"><g transform="translate(198.101511, 282.001545)"><g><path d="M 0.515625 0 L 0.515625 -5.875 L 1.75 -5.875 L 1.75 -3.453125 L 4.28125 -3.453125 L 4.28125 -5.875 L 5.515625 -5.875 L 5.515625 0 L 4.28125 0 L 4.28125 -2.421875 L 1.75 -2.421875 L 1.75 0 Z M 0.515625 0 "/></g></g></g><g fill="#56b6c2" fill-opacity="1"><g transform="translate(206.014885, 282.001545)"><g><path d="M 1.515625 0 L 0.1875 0 L 2.21875 -5.875 L 3.828125 -5.875 L 5.84375 0 L 4.515625 0 L 4.078125 -1.34375 L 1.953125 -1.34375 Z M 2.28125 -2.3125 L 3.765625 -2.3125 L 3.046875 -4.53125 L 3 -4.53125 Z M 2.28125 -2.3125 "/></g></g></g><g fill="#56b6c2" fill-opacity="1"><g transform="translate(213.942593, 282.001545)"><g><path d="M 0.515625 0 L 0.515625 -5.875 L 2.828125 -5.875 C 3.492188 -5.875 4.007812 -5.695312 4.375 -5.34375 C 4.75 -5 4.9375 -4.535156 4.9375 -3.953125 C 4.9375 -3.554688 4.84375 -3.210938 4.65625 -2.921875 C 4.476562 -2.640625 4.222656 -2.425781 3.890625 -2.28125 L 5.140625 0 L 3.765625 0 L 2.65625 -2.078125 L 1.75 -2.078125 L 1.75 0 Z M 1.75 -3.078125 L 2.59375 -3.078125 C 3.300781 -3.078125 3.65625 -3.367188 3.65625 -3.953125 C 3.65625 -4.554688 3.300781 -4.859375 2.59375 -4.859375 L 1.75 -4.859375 Z M 1.75 -3.078125 "/></g></g></g><g fill="#56b6c2" fill-opacity="1"><g transform="translate(221.130566, 282.001545)"><g><path d="M 0.515625 0 L 0.515625 -5.875 L 2.828125 -5.875 C 3.273438 -5.875 3.65625 -5.789062 3.96875 -5.625 C 4.28125 -5.457031 4.519531 -5.222656 4.6875 -4.921875 C 4.851562 -4.617188 4.9375 -4.273438 4.9375 -3.890625 C 4.9375 -3.492188 4.847656 -3.144531 4.671875 -2.84375 C 4.503906 -2.550781 4.257812 -2.320312 3.9375 -2.15625 C 3.625 -1.988281 3.242188 -1.90625 2.796875 -1.90625 L 1.75 -1.90625 L 1.75 0 Z M 1.75 -2.90625 L 2.59375 -2.90625 C 2.945312 -2.90625 3.210938 -2.992188 3.390625 -3.171875 C 3.566406 -3.359375 3.65625 -3.597656 3.65625 -3.890625 C 3.65625 -4.179688 3.566406 -4.414062 3.390625 -4.59375 C 3.210938 -4.769531 2.945312 -4.859375 2.59375 -4.859375 L 1.75 -4.859375 Z M 1.75 -2.90625 "/></g></g></g><g fill="#56b6c2" fill-opacity="1"><g transform="translate(228.249731, 282.001545)"><g><path d="M 0.515625 0 L 0.515625 -5.875 L 4.46875 -5.875 L 4.46875 -4.84375 L 1.75 -4.84375 L 1.75 -3.453125 L 4.265625 -3.453125 L 4.265625 -2.421875 L 1.75 -2.421875 L 1.75 -1.03125 L 4.484375 -1.03125 L 4.484375 0 Z M 0.515625 0 "/></g></g></g><g fill="#56b6c2" fill-opacity="1"><g transform="translate(235.085035, 282.001545)"><g><path d="M 0.515625 0 L 0.515625 -5.875 L 2.828125 -5.875 C 3.492188 -5.875 4.007812 -5.695312 4.375 -5.34375 C 4.75 -5 4.9375 -4.535156 4.9375 -3.953125 C 4.9375 -3.554688 4.84375 -3.210938 4.65625 -2.921875 C 4.476562 -2.640625 4.222656 -2.425781 3.890625 -2.28125 L 5.140625 0 L 3.765625 0 L 2.65625 -2.078125 L 1.75 -2.078125 L 1.75 0 Z M 1.75 -3.078125 L 2.59375 -3.078125 C 3.300781 -3.078125 3.65625 -3.367188 3.65625 -3.953125 C 3.65625 -4.554688 3.300781 -4.859375 2.59375 -4.859375 L 1.75 -4.859375 Z M 1.75 -3.078125 "/></g></g></g><g fill="#56b6c2" fill-opacity="1"><g transform="translate(246.034665, 282.001545)"><g><path d="M 0.515625 -5.875 L 2.046875 -5.875 L 3.65625 -1.921875 L 3.734375 -1.921875 L 5.34375 -5.875 L 6.875 -5.875 L 6.875 0 L 5.671875 0 L 5.671875 -3.828125 L 5.625 -3.828125 L 4.109375 -0.03125 L 3.28125 -0.03125 L 1.765625 -3.84375 L 1.71875 -3.84375 L 1.71875 0 L 0.515625 0 Z M 0.515625 -5.875 "/></g></g></g><g fill="#56b6c2" fill-opacity="1"><g transform="translate(255.384509, 282.001545)"><g><path d="M 1.75 -5.875 L 1.75 0 L 0.515625 0 L 0.515625 -5.875 Z M 1.75 -5.875 "/></g></g></g><g fill="#56b6c2" fill-opacity="1"><g transform="translate(259.538979, 282.001545)"><g><path d="M 5.421875 -5.875 L 5.421875 0 L 4.359375 0 L 1.796875 -3.703125 L 1.75 -3.703125 L 1.75 0 L 0.515625 0 L 0.515625 -5.875 L 1.59375 -5.875 L 4.140625 -2.1875 L 4.1875 -2.1875 L 4.1875 -5.875 Z M 5.421875 -5.875 "/></g></g></g><g fill="#56b6c2" fill-opacity="1"><g transform="translate(267.363482, 282.001545)"><g><path d="M 2.59375 0 L 0.515625 0 L 0.515625 -5.875 L 2.609375 -5.875 C 3.203125 -5.875 3.710938 -5.753906 4.140625 -5.515625 C 4.566406 -5.285156 4.894531 -4.953125 5.125 -4.515625 C 5.351562 -4.078125 5.46875 -3.550781 5.46875 -2.9375 C 5.46875 -2.332031 5.351562 -1.804688 5.125 -1.359375 C 4.894531 -0.921875 4.5625 -0.582031 4.125 -0.34375 C 3.695312 -0.113281 3.1875 0 2.59375 0 Z M 1.75 -1.0625 L 2.546875 -1.0625 C 3.097656 -1.0625 3.515625 -1.207031 3.796875 -1.5 C 4.085938 -1.800781 4.234375 -2.28125 4.234375 -2.9375 C 4.234375 -3.59375 4.085938 -4.066406 3.796875 -4.359375 C 3.515625 -4.660156 3.097656 -4.8125 2.546875 -4.8125 L 1.75 -4.8125 Z M 1.75 -1.0625 "/></g></g></g><g fill="#56b6c2" fill-opacity="1"><g transform="translate(275.124906, 282.001545)"><g><path d="M 3.703125 -4.1875 C 3.671875 -4.414062 3.566406 -4.59375 3.390625 -4.71875 C 3.222656 -4.851562 2.988281 -4.921875 2.6875 -4.921875 C 2.382812 -4.921875 2.148438 -4.859375 1.984375 -4.734375 C 1.828125 -4.609375 1.75 -4.453125 1.75 -4.265625 C 1.75 -4.046875 1.835938 -3.882812 2.015625 -3.78125 C 2.203125 -3.675781 2.421875 -3.59375 2.671875 -3.53125 L 3.203125 -3.40625 C 3.546875 -3.332031 3.847656 -3.222656 4.109375 -3.078125 C 4.378906 -2.929688 4.585938 -2.742188 4.734375 -2.515625 C 4.890625 -2.285156 4.96875 -2.003906 4.96875 -1.671875 C 4.96875 -1.140625 4.765625 -0.710938 4.359375 -0.390625 C 3.960938 -0.078125 3.40625 0.078125 2.6875 0.078125 C 1.976562 0.078125 1.410156 -0.0820312 0.984375 -0.40625 C 0.554688 -0.726562 0.335938 -1.207031 0.328125 -1.84375 L 1.515625 -1.84375 C 1.546875 -1.550781 1.664062 -1.328125 1.875 -1.171875 C 2.082031 -1.023438 2.347656 -0.953125 2.671875 -0.953125 C 2.984375 -0.953125 3.234375 -1.019531 3.421875 -1.15625 C 3.617188 -1.289062 3.71875 -1.46875 3.71875 -1.6875 C 3.71875 -1.882812 3.628906 -2.035156 3.453125 -2.140625 C 3.285156 -2.242188 3.039062 -2.335938 2.71875 -2.421875 L 2.078125 -2.578125 C 1.578125 -2.691406 1.179688 -2.878906 0.890625 -3.140625 C 0.609375 -3.398438 0.46875 -3.742188 0.46875 -4.171875 C 0.46875 -4.523438 0.5625 -4.835938 0.75 -5.109375 C 0.945312 -5.378906 1.210938 -5.585938 1.546875 -5.734375 C 1.890625 -5.878906 2.273438 -5.953125 2.703125 -5.953125 C 3.140625 -5.953125 3.519531 -5.878906 3.84375 -5.734375 C 4.164062 -5.585938 4.414062 -5.378906 4.59375 -5.109375 C 4.78125 -4.835938 4.878906 -4.53125 4.890625 -4.1875 Z M 3.703125 -4.1875 "/></g></g></g></svg>